<svg xmlns="http://www.w3.org/2000/svg" width="32" height="32" viewBox="0 0 32 32" fill="none">
  <!-- Earth Circle -->
  <circle cx="16" cy="16" r="14" fill="#1E40AF" />
  
  <!-- Continents/Land -->
  <path d="M12 7C14 8 19 7 19 10C19 13 14 12 16 15C18 18 24 15 23 19C22 23 17 22 17 24C17 26 21 28 18 29C15 30 8 29 7 26C6 23 10 20 9 18C8 16 4 17 5 14C6 11 10 13 12 11C14 9 10 6 12 7Z" fill="#34D399" />
  
  <!-- Orbit/Grid Lines -->
  <path d="M4 16H28M16 4V28" stroke="white" stroke-opacity="0.4" stroke-width="1" />
  <ellipse cx="16" cy="16" rx="14" ry="8" stroke="white" stroke-opacity="0.4" stroke-width="1" />
</svg>